<?xml version="1.0" encoding="UTF-8" standalone="no"?>
<svg
   xmlns:osb="http://www.openswatchbook.org/uri/2009/osb"
   xmlns:dc="http://purl.org/dc/elements/1.1/"
   xmlns:cc="http://creativecommons.org/ns#"
   xmlns:rdf="http://www.w3.org/1999/02/22-rdf-syntax-ns#"
   xmlns:svg="http://www.w3.org/2000/svg"
   xmlns="http://www.w3.org/2000/svg"
   xmlns:sodipodi="http://sodipodi.sourceforge.net/DTD/sodipodi-0.dtd"
   xmlns:inkscape="http://www.inkscape.org/namespaces/inkscape"
   version="1.1"
   x="0px"
   y="0px"
   viewBox="0 0 650 650"
   xml:space="preserve"
   id="svg22"
   sodipodi:docname="penme.svg"
   width="650"
   height="650"
   inkscape:version="0.92.1 r15371"><title
     id="title6606">Penme Logo</title><metadata
     id="metadata28"><rdf:RDF><cc:Work
         rdf:about=""><dc:format>image/svg+xml</dc:format><dc:type
           rdf:resource="http://purl.org/dc/dcmitype/StillImage" /><dc:title>Penme Logo</dc:title><dc:creator><cc:Agent><dc:title>Palash Bauri</dc:title></cc:Agent></dc:creator><dc:rights><cc:Agent><dc:title>Palash Bauri</dc:title></cc:Agent></dc:rights><dc:publisher><cc:Agent><dc:title>Palash Bauri</dc:title></cc:Agent></dc:publisher><dc:description>Palash Bauri</dc:description></cc:Work></rdf:RDF></metadata><defs
     id="defs26"><marker
       inkscape:stockid="Scissors"
       orient="auto"
       refY="0"
       refX="0"
       id="Scissors"
       style="overflow:visible"
       inkscape:isstock="true"><path
         id="schere"
         d="M 9.0898857,-3.6061018 C 8.1198849,-4.7769976 6.3697607,-4.7358294 5.0623558,-4.2327734 l -8.2124046,3.0779029 c -2.3882933,-1.3067135 -4.7482873,-0.9325372 -4.7482873,-1.5687873 0,-0.4973164 0.4566662,-0.3883222 0.3883068,-1.6831941 -0.065635,-1.2432767 -1.3635771,-2.1630796 -2.5903987,-2.0816435 -1.227271,-0.00735 -2.499439,0.9331613 -2.510341,2.2300611 -0.09143,1.3063864 1.007209,2.5196896 2.306764,2.6052316 1.5223406,0.2266616 4.218258,-0.6955566 5.482945,1.57086006 -0.9422847,1.73825774 -2.6140244,1.74307674 -4.1255107,1.65607034 -1.2548743,-0.072235 -2.7620933,0.2873979 -3.3606483,1.5208605 -0.578367,1.1820862 -0.0112,2.8646022 1.316749,3.226412 1.3401912,0.4918277 3.1806689,-0.129711 3.4993722,-1.6707242 0.2456585,-1.187823 -0.5953659,-1.7459574 -0.2725074,-2.1771537 0.2436135,-0.32536 1.7907806,-0.1368452 4.5471053,-1.3748244 L 5.6763468,4.2330688 C 6.8000164,4.5467672 8.1730685,4.5362646 9.1684433,3.4313614 l -9.22008423,-3.48508362 z m -18.3078016,-1.900504 c 1.294559,0.7227998 1.1888392,2.6835702 -0.1564272,3.0632889 -1.2165179,0.423661 -2.7710269,-0.7589694 -2.3831779,-2.0774648 0.227148,-1.0818519 1.653387,-1.480632 2.5396051,-0.9858241 z m 0.056264,8.0173649 c 1.3508301,0.4988648 1.1214429,2.7844356 -0.2522207,3.091609 -0.9110594,0.3163391 -2.2135494,-0.1387976 -2.3056964,-1.2121394 -0.177609,-1.305055 1.356085,-2.4841482 2.5579171,-1.8794696 z"
         style="fill:#040000;fill-opacity:1;stroke:#040000;stroke-opacity:1"
         inkscape:connector-curvature="0" /></marker><marker
       inkscape:stockid="DotS"
       orient="auto"
       refY="0"
       refX="0"
       id="DotS"
       style="overflow:visible"
       inkscape:isstock="true"><path
         id="path6095"
         d="m -2.5,-1 c 0,2.76 -2.24,5 -5,5 -2.76,0 -5,-2.24 -5,-5 0,-2.76 2.24,-5 5,-5 2.76,0 5,2.24 5,5 z"
         style="fill:#040000;fill-opacity:1;fill-rule:evenodd;stroke:#040000;stroke-width:1.00000003pt;stroke-opacity:1"
         transform="matrix(0.2,0,0,0.2,1.48,0.2)"
         inkscape:connector-curvature="0" /></marker><marker
       inkscape:stockid="Arrow1Send"
       orient="auto"
       refY="0"
       refX="0"
       id="Arrow1Send"
       style="overflow:visible"
       inkscape:isstock="true"><path
         id="path6043"
         d="M 0,0 5,-5 -12.5,0 5,5 Z"
         style="fill:#040000;fill-opacity:1;fill-rule:evenodd;stroke:#040000;stroke-width:1.00000003pt;stroke-opacity:1"
         transform="matrix(-0.2,0,0,-0.2,-1.2,0)"
         inkscape:connector-curvature="0" /></marker><marker
       inkscape:stockid="Arrow1Mend"
       orient="auto"
       refY="0"
       refX="0"
       id="Arrow1Mend"
       style="overflow:visible"
       inkscape:isstock="true"><path
         id="path6037"
         d="M 0,0 5,-5 -12.5,0 5,5 Z"
         style="fill:#040000;fill-opacity:1;fill-rule:evenodd;stroke:#040000;stroke-width:1.00000003pt;stroke-opacity:1"
         transform="matrix(-0.4,0,0,-0.4,-4,0)"
         inkscape:connector-curvature="0" /></marker><marker
       inkscape:stockid="Arrow1Lend"
       orient="auto"
       refY="0"
       refX="0"
       id="Arrow1Lend"
       style="overflow:visible"
       inkscape:isstock="true"><path
         id="path6031"
         d="M 0,0 5,-5 -12.5,0 5,5 Z"
         style="fill:#040000;fill-opacity:1;fill-rule:evenodd;stroke:#040000;stroke-width:1.00000003pt;stroke-opacity:1"
         transform="matrix(-0.8,0,0,-0.8,-10,0)"
         inkscape:connector-curvature="0" /></marker><marker
       inkscape:stockid="Arrow1Lstart"
       orient="auto"
       refY="0"
       refX="0"
       id="Arrow1Lstart"
       style="overflow:visible"
       inkscape:isstock="true"><path
         id="path6028"
         d="M 0,0 5,-5 -12.5,0 5,5 Z"
         style="fill:#040000;fill-opacity:1;fill-rule:evenodd;stroke:#040000;stroke-width:1.00000003pt;stroke-opacity:1"
         transform="matrix(0.8,0,0,0.8,10,0)"
         inkscape:connector-curvature="0" /></marker><linearGradient
       id="linearGradient6024"
       osb:paint="solid"><stop
         style="stop-color:#040000;stop-opacity:1;"
         offset="0"
         id="stop6022" /></linearGradient><linearGradient
       id="linearGradient5994"
       osb:paint="solid"><stop
         style="stop-color:#000000;stop-opacity:1;"
         offset="0"
         id="stop5992" /></linearGradient></defs><sodipodi:namedview
     pagecolor="#ffffff"
     bordercolor="#666666"
     borderopacity="1"
     objecttolerance="10"
     gridtolerance="10"
     guidetolerance="10"
     inkscape:pageopacity="0"
     inkscape:pageshadow="2"
     inkscape:window-width="1366"
     inkscape:window-height="700"
     id="namedview24"
     showgrid="false"
     inkscape:measure-start="264.155,385.648"
     inkscape:measure-end="263.234,524.628"
     fit-margin-top="0"
     fit-margin-left="0"
     fit-margin-right="0"
     fit-margin-bottom="0"
     inkscape:zoom="0.38413022"
     inkscape:cx="-406.08744"
     inkscape:cy="475.51459"
     inkscape:window-x="0"
     inkscape:window-y="34"
     inkscape:window-maximized="1"
     inkscape:current-layer="g6561"
     inkscape:pagecheckerboard="true" /><g
     id="g6561"
     transform="translate(174,32)"><path
       sodipodi:nodetypes="cccccscscccccccscccccccc"
       d="M 39.46892,43.454747 V 488.71177 l 29.824618,68.85853 1.240152,2.43719 29.8518,-71.21124 V 43.539237 c 0,-6.252186 -5.745256,-10.645615 -13.518241,-13.011307 C 82.389327,29.091617 77.404476,43.4527 72.250649,43.368211 67.096821,43.283723 61.858506,28.669172 57.042631,29.936508 47.748835,32.133221 40.313814,36.864605 39.46892,43.454747 Z M 21.134804,490.65501 21.21928,43.623725 v -0.675912 0 c 1.01387,-16.390866 14.6166,-26.614035 31.514394,-30.838485 6.336686,-1.60529 13.264777,-2.2812031 20.108392,-2.1967137 6.843603,0.084488 13.687218,1.1828457 19.770416,3.0416037 15.039048,4.731384 26.276088,14.785575 26.276088,30.500529 l -0.16899,446.946793 c 0.0845,1.26734 -0.16898,2.53467 -0.7604,3.80201 v 0 c -67.911289,95.43478 -27.831972,94.92541 -95.894994,0.42264 -0.591417,-1.26733 -0.929382,-2.61916 -0.929382,-3.97099 z"
       id="pathpee"
       inkscape:connector-curvature="0"
       inkscape:label="#ppathpee"
       style="stroke-width:1.19485486;fill:#ffffff;fill-opacity:1" /><path
       sodipodi:nodetypes="csccsccc"
       d="m -5.5117937,62.407906 c 0,-5.06934 -3.5900898,-5.085261 -8.6594293,-5.085261 -5.06934,0 -9.759173,0.01592 -9.759173,5.085261 l 0.08449,182.242774 c 0,5.06934 4.139961,9.2093 9.2093,9.2093 5.0693405,0 9.2093012,-4.13996 9.2093012,-9.2093 -0.1689775,0 -0.084488,-182.242774 -0.084487,-182.242774 z"
       id="pathsd"
       inkscape:connector-curvature="0"
       inkscape:label="#ppathsd"
       style="stroke-width:1.19485486;fill:#ffffff;fill-opacity:1" /><path
       sodipodi:nodetypes="csccscc"
       d="m 23.960337,88.646602 c 4.984851,-0.08448 2.441853,-4.308946 2.357365,-9.293796 -0.08448,-4.984851 2.289533,-9.040323 -2.695318,-8.955834 l -30.6695125,0.591424 c -4.9848515,0.08449 -4.6413455,4.034002 -4.5568565,9.018853 0.08449,4.984853 -0.09004,9.315258 4.8948128,9.23077 -0.084488,0.08448 30.6695092,-0.591417 30.6695092,-0.591417 z"
       id="pathsdsd"
       inkscape:connector-curvature="0"
       style="stroke-width:1.19485486;fill:#ffffff;fill-opacity:1" /><path
       transform="matrix(1.1729192,0.22790075,-0.22790075,1.1729192,-41.112103,-82.150827)"
       d="m 144.48265,92.849381 c 49.85236,-42.841465 127.32247,-36.98202 170.16394,12.870339 42.84147,49.85235 36.98202,127.32247 -12.87033,170.16393 -19.45001,16.71469 -44.11652,26.91449 -69.69114,28.81782"
       sodipodi:t0="0.25321749"
       sodipodi:argument="-16.127844"
       sodipodi:radius="120.66775"
       sodipodi:revolution="0.80500311"
       sodipodi:expansion="0"
       sodipodi:cy="184.36652"
       sodipodi:cx="223.12946"
       id="path4532"
       style="opacity:1;fill:none;fill-opacity:1;fill-rule:evenodd;stroke:#fff4f4;stroke-width:25;stroke-linejoin:round;stroke-miterlimit:4;stroke-dasharray:none;stroke-dashoffset:0;stroke-opacity:1"
       sodipodi:type="spiral" /><circle
       r="15.552732"
       cy="121.2126"
       cx="176.04881"
       id="path6536"
       style="opacity:1;fill:#000000;fill-opacity:1;stroke:#ffffff;stroke-width:29.87137222;stroke-linejoin:round;stroke-miterlimit:4;stroke-dasharray:none;stroke-dashoffset:0;stroke-opacity:1" /><circle
       inkscape:transform-center-y="12.885598"
       inkscape:transform-center-x="35.435394"
       r="15.552732"
       cy="240.04646"
       cx="176.46181"
       id="path6536-3"
       style="opacity:1;fill:#000000;fill-opacity:1;stroke:#ffffff;stroke-width:29.87137222;stroke-linejoin:round;stroke-miterlimit:4;stroke-dasharray:none;stroke-dashoffset:0;stroke-opacity:1" /></g></svg>