<svg version="1" xmlns="http://www.w3.org/2000/svg" width="2708" height="2708" viewBox="0 0 2031.000000 2031.000000"><path d="M746.8 131.5c-.2.1-3.7.6-7.8.9-4.1.4-8.2.9-9 1.1-.8.2-3.1.6-5 .9-35.4 5.4-73.5 23.7-90.5 43.5-1.6 1.9-3.7 4.2-4.5 5.1-6.5 6.7-16.2 26.2-17.6 35.5-.3 1.6-.8 3.7-1.2 4.5-.4.8-.9 23-1.2 49.4l-.5 47.8-26.5.4c-14.6.3-33.3.6-41.5.8l-15.1.3.1-14.1c.2-18.4-1-22.7-6.8-25.8-3.9-2.1-5.5-2.3-20.7-2.3-18.3 0-22 .8-26.6 5.6l-2.9 3v583.4l2.4 4.9c9.7 19.7 36.2 22.4 49.1 4.9 6.1-8.3 5.8 8.3 5.6-258.6l-.2-243.7 2.6-.1c9.7-.2 41.1-.9 59.3-1.3l21.8-.4-.2 630.6c-.2 582.3-.1 631 1.5 634.6.9 2.1 5.5 9.3 10.3 16 13.4 18.6 51 75.1 57.8 86.7.6.9 7.4 12.2 15.1 25 7.8 12.9 16.6 27.7 19.6 32.9 22 38.1 30.3 51.1 37 57.9 8.6 8.7 14.8 8.5 23.7-.8 5.5-5.9 18.1-25.6 31.9-50.1 26.3-46.7 62.1-103.5 93.7-149 6.7-9.6 12.6-18.9 13.2-20.5.7-2 1.1-218.3 1.2-661.4.1-362.2.4-658.8.7-659.2 1.6-2.6 38.7-18.4 58.4-24.8 11.8-3.9 40.4-11.4 48-12.5 1.9-.3 4.6-.8 6-1.1 1.4-.3 4.5-.8 7-1.1 2.5-.3 5.2-.7 6-.9.8-.2 3.8-.7 6.5-1 2.8-.3 6.5-.7 8.4-1 14.6-1.8 52.8-2.4 71.5-1.1 23.8 1.6 46.1 5.2 72.1 11.7 14.8 3.6 42 12.2 49 15.4 1.7.8 5.3 2.3 8.1 3.4 19.4 7.5 48.4 22.8 69.4 36.6 10.5 6.9 26.7 18.6 31.7 23 .7.5 1.8 1.5 2.5 2 6.8 5.5 21.3 18.8 29.8 27.4 30.3 30.7 53.7 63.3 72.6 101.3 4.1 8.1 7.4 14.9 7.4 15.2 0 .3 1.1 2.9 2.4 5.8 6.6 14.7 16.5 43.7 19.1 55.8.2.8 1.3 5.3 2.4 10 1.1 4.7 2.2 9.8 2.5 11.4.3 1.6 1 5.2 1.5 8 1.1 5.3 1.6 8.6 2.6 17.1.4 2.7.8 6 1 7.2.4 2.5 1.5 14.8 2 23.3.5 7.4.6 39 .1 46.5-.8 11.2-1.7 22.4-2.1 24.3-.2 1-.6 4.3-1 7.3-.7 6.5-.7 6.7-4 24.4-1.5 7.7-3.3 16.5-4.2 19.5-.8 3-1.9 7.1-2.4 9-2 8.4-11 35.5-15.4 46.5-10.4 26.3-26.4 56.2-42.4 79.5-8.9 13-8.2 12-17.7 24-15 19-36.2 40.8-54.9 56.5-13.7 11.6-49.1 36.3-54.9 38.4-.6.2-2.2 1.2-3.6 2.1-3 2.1-26.1 13.8-34.5 17.5-23.6 10.4-60.7 22.6-79.2 25.9-1.4.3-4.9 1-7.7 1.5-8.3 1.7-23.2 3.9-36.4 5.5-21.5 2.6-62.6 2.6-84.4 0-4.7-.5-4.8-.5-4.9 2.3 0 1.5-.2 3.7-.4 4.8-.4 1.9-.9 5.7-2 16-.3 2.7-1 8.4-1.5 12.5s-1.2 10.2-1.5 13.5c-.3 3.3-.8 7.1-1 8.5-.3 1.4-.7 4.7-1 7.5-.3 2.7-.8 6.3-1 8-.2 1.6-.7 6.1-1 10-.4 3.8-.9 7.3-1.1 7.7-.9 1.5 2.8 2.1 21.6 3.5 19.3 1.5 77.2.7 86.9-1.2 1.8-.3 7.3-1 16.6-2 5.9-.7 28.2-4.6 37.5-6.6 61.1-13.4 116.7-36.6 167.5-69.8 3.9-2.5 26.5-18.4 29.5-20.7 35.3-27.2 75.5-68.7 98-101 11.5-16.5 28-41.8 28-42.9 0-.2 1.4-2.8 3.1-5.7 4.9-8.1 19.2-37.1 24.2-48.8 12.7-29.9 25.3-69.6 30.1-95 .3-1.4 1.2-6.1 2.1-10.5.9-4.4 1.8-9.5 2-11.4.2-1.8.6-4.1.9-5 .3-.9.7-4.1 1.1-7.2.3-3.1.7-6.6 1-7.7.2-1.2.7-5.2 1.1-8.9.4-3.7.8-8.2 1-9.8.8-7.8 1.8-32.4 1.8-45-.1-26.2-1.4-44.4-6-78.5-2-15.1-10.3-49.9-16.9-70.9-3.2-10.2-13.5-38.2-15.4-41.8-.5-1-2.6-5.6-4.6-10.3-9.2-21.3-26.7-52.6-41.4-74-25.4-37.2-56.6-71.6-90.6-99.9-80.5-67.2-181.2-107.7-288-115.8-19.4-1.5-76.2-.7-86.1 1.1-1 .2-5 .7-8.7 1.1-3.7.3-7.6.8-8.6 1-1 .2-3.6.6-5.7.9-3.3.5-10.9 1.9-28.9 5.1-13.2 2.4-46.4 11.7-61 17.1-3.8 1.4-9 3.2-11.5 4.1-2.5.8-5.7 2.2-7.3 2.9-2.2 1.2-2.8 1.2-3.1.2-.3-.7-1.2-3.8-2-6.9-1.4-5.1-9.1-21.7-10.5-22.9-.4-.3-1.4-1.7-2.4-3.2-4.9-7.7-20.6-21.8-31.1-28-12.3-7.3-30.4-14.5-45.6-18.3-9.1-2.3-12.8-3-21.5-4.1-2.2-.3-6.4-.9-9.4-1.4-5-.7-43.5-1.2-44.3-.5zm-19.5 62.9c4.7 2 8.5 5.9 17.1 17.4 4.2 5.7 8.3 11 9.1 11.8.8.8 2 2.3 2.7 3.2 3.1 4.3 9.7 8.4 13.3 8.4 6.5 0 10.1-3.4 27.4-26.3 7-9.1 10.8-12.8 14.3-13.5 5.1-1 21.7 6.2 31.3 13.6 7 5.4 11 10.8 13.5 18.4 1.4 4.2 1.9 17.5.7 17.9-.4.1-.4 2 0 4.2.5 2.2.8 313.1.7 691l-.1 687-4.6 11c-2.6 6-4.7 11.5-4.7 12.2 0 .7-.4 1.3-1 1.3-.5 0-1 .6-1 1.3 0 1-15.1 37.8-18.9 46.2-1.3 2.7-13.5 31.9-17.8 42.5-1.9 4.7-4.1 9.8-4.8 11.5-2.2 4.9-4.2 9.6-7 16.5-1.5 3.6-3.3 7.8-4 9.5-2 4.5-19.5 46.4-21.5 51.5-1 2.5-3 7.1-4.4 10.2-1.4 3.1-2.6 6.2-2.6 6.7 0 2.1-1.7 1.1-3-1.7-.6-1.5-5.5-12.6-10.7-24.7-11.1-25.9-11.4-26.4-14.6-33.5-1.4-3-4.4-10-6.7-15.5s-5-11.8-6-14c-2-4.5-12.4-28.4-29-67-6.2-14.3-12.1-27.9-13.1-30.3-1.1-2.3-2.8-6.3-4-9-2.7-6.4-3.3-7.6-7.1-15.7l-3.3-7-.2-698.2-.3-698.1 2-4.8c6.1-14.2 21.6-25.5 44.5-32.5 10.8-3.3 9.8-3.2 13.8-1.5z"/><path d="M1087.7 383.6c-.1.1-2.9.5-6.2.9-8.1.8-15.9 2.9-24.3 6.5-61.7 26.3-78.2 104.5-32.3 153.2 14 15 34.9 25.9 54.6 28.6 6.4.9 22.5.9 29 0 29.9-4.1 58.1-25.5 71.5-54.1 10.4-22.1 11.6-50.2 3-72.9-8.8-23.4-26.8-42.9-49.5-53.6-6.3-3-19.4-6.8-26.5-7.7-5.4-.7-18.8-1.3-19.3-.9zM1075.1 757.1c-31.4 7-56 27.6-68.1 57.3-12.1 29.7-8.3 63.1 10.3 90.6 5.2 7.7 18.7 20.3 27.6 25.8 10.1 6.1 24 11.6 32.6 12.8 1.1.1 3.4.5 5 .8 3.5.7 23.2.9 24.3.3.4-.3 2.8-.8 5.5-1.1 6.8-.9 20.7-5.9 28.4-10.1 30.6-16.8 49.5-48.8 49.4-84 0-11-1.3-19.2-4.8-29.5-11-32.7-37.7-56.1-72.3-63.4-9.4-2-27.8-1.7-37.9.5z"/></svg>