<?xml version="1.0" encoding="UTF-8" standalone="no"?>
<svg
   xmlns:osb="http://www.openswatchbook.org/uri/2009/osb"
   xmlns:dc="http://purl.org/dc/elements/1.1/"
   xmlns:cc="http://creativecommons.org/ns#"
   xmlns:rdf="http://www.w3.org/1999/02/22-rdf-syntax-ns#"
   xmlns:svg="http://www.w3.org/2000/svg"
   xmlns="http://www.w3.org/2000/svg"
   xmlns:sodipodi="http://sodipodi.sourceforge.net/DTD/sodipodi-0.dtd"
   xmlns:inkscape="http://www.inkscape.org/namespaces/inkscape"
   version="1.1"
   x="0px"
   y="0px"
   viewBox="0 0 650 650"
   xml:space="preserve"
   id="svg22"
   sodipodi:docname="penme.svg"
   width="650"
   height="650"
   inkscape:version="0.92.1 r15371"><title
     id="title6606">Penme Logo</title><metadata
     id="metadata28"><rdf:RDF><cc:Work
         rdf:about=""><dc:format>image/svg+xml</dc:format><dc:type
           rdf:resource="http://purl.org/dc/dcmitype/StillImage" /><dc:title>Penme Logo</dc:title><dc:creator><cc:Agent><dc:title>Palash Bauri</dc:title></cc:Agent></dc:creator><dc:rights><cc:Agent><dc:title>Palash Bauri</dc:title></cc:Agent></dc:rights><dc:publisher><cc:Agent><dc:title>Palash Bauri</dc:title></cc:Agent></dc:publisher><dc:description>Palash Bauri</dc:description></cc:Work></rdf:RDF></metadata><defs
     id="defs26"><marker
       inkscape:stockid="Scissors"
       orient="auto"
       refY="0"
       refX="0"
       id="Scissors"
       style="overflow:visible"
       inkscape:isstock="true"><path
         id="schere"
         d="M 9.0898857,-3.6061018 C 8.1198849,-4.7769976 6.3697607,-4.7358294 5.0623558,-4.2327734 l -8.2124046,3.0779029 c -2.3882933,-1.3067135 -4.7482873,-0.9325372 -4.7482873,-1.5687873 0,-0.4973164 0.4566662,-0.3883222 0.3883068,-1.6831941 -0.065635,-1.2432767 -1.3635771,-2.1630796 -2.5903987,-2.0816435 -1.227271,-0.00735 -2.499439,0.9331613 -2.510341,2.2300611 -0.09143,1.3063864 1.007209,2.5196896 2.306764,2.6052316 1.5223406,0.2266616 4.218258,-0.6955566 5.482945,1.57086006 -0.9422847,1.73825774 -2.6140244,1.74307674 -4.1255107,1.65607034 -1.2548743,-0.072235 -2.7620933,0.2873979 -3.3606483,1.5208605 -0.578367,1.1820862 -0.0112,2.8646022 1.316749,3.226412 1.3401912,0.4918277 3.1806689,-0.129711 3.4993722,-1.6707242 0.2456585,-1.187823 -0.5953659,-1.7459574 -0.2725074,-2.1771537 0.2436135,-0.32536 1.7907806,-0.1368452 4.5471053,-1.3748244 L 5.6763468,4.2330688 C 6.8000164,4.5467672 8.1730685,4.5362646 9.1684433,3.4313614 l -9.22008423,-3.48508362 z m -18.3078016,-1.900504 c 1.294559,0.7227998 1.1888392,2.6835702 -0.1564272,3.0632889 -1.2165179,0.423661 -2.7710269,-0.7589694 -2.3831779,-2.0774648 0.227148,-1.0818519 1.653387,-1.480632 2.5396051,-0.9858241 z m 0.056264,8.0173649 c 1.3508301,0.4988648 1.1214429,2.7844356 -0.2522207,3.091609 -0.9110594,0.3163391 -2.2135494,-0.1387976 -2.3056964,-1.2121394 -0.177609,-1.305055 1.356085,-2.4841482 2.5579171,-1.8794696 z"
         style="fill:#040000;fill-opacity:1;stroke:#040000;stroke-opacity:1"
         inkscape:connector-curvature="0" /></marker><marker
       inkscape:stockid="DotS"
       orient="auto"
       refY="0"
       refX="0"
       id="DotS"
       style="overflow:visible"
       inkscape:isstock="true"><path
         id="path6095"
         d="m -2.5,-1 c 0,2.76 -2.24,5 -5,5 -2.76,0 -5,-2.24 -5,-5 0,-2.76 2.24,-5 5,-5 2.76,0 5,2.24 5,5 z"
         style="fill:#040000;fill-opacity:1;fill-rule:evenodd;stroke:#040000;stroke-width:1.00000003pt;stroke-opacity:1"
         transform="matrix(0.2,0,0,0.2,1.48,0.2)"
         inkscape:connector-curvature="0" /></marker><marker
       inkscape:stockid="Arrow1Send"
       orient="auto"
       refY="0"
       refX="0"
       id="Arrow1Send"
       style="overflow:visible"
       inkscape:isstock="true"><path
         id="path6043"
         d="M 0,0 5,-5 -12.5,0 5,5 Z"
         style="fill:#040000;fill-opacity:1;fill-rule:evenodd;stroke:#040000;stroke-width:1.00000003pt;stroke-opacity:1"
         transform="matrix(-0.2,0,0,-0.2,-1.2,0)"
         inkscape:connector-curvature="0" /></marker><marker
       inkscape:stockid="Arrow1Mend"
       orient="auto"
       refY="0"
       refX="0"
       id="Arrow1Mend"
       style="overflow:visible"
       inkscape:isstock="true"><path
         id="path6037"
         d="M 0,0 5,-5 -12.5,0 5,5 Z"
         style="fill:#040000;fill-opacity:1;fill-rule:evenodd;stroke:#040000;stroke-width:1.00000003pt;stroke-opacity:1"
         transform="matrix(-0.4,0,0,-0.4,-4,0)"
         inkscape:connector-curvature="0" /></marker><marker
       inkscape:stockid="Arrow1Lend"
       orient="auto"
       refY="0"
       refX="0"
       id="Arrow1Lend"
       style="overflow:visible"
       inkscape:isstock="true"><path
         id="path6031"
         d="M 0,0 5,-5 -12.5,0 5,5 Z"
         style="fill:#040000;fill-opacity:1;fill-rule:evenodd;stroke:#040000;stroke-width:1.00000003pt;stroke-opacity:1"
         transform="matrix(-0.8,0,0,-0.8,-10,0)"
         inkscape:connector-curvature="0" /></marker><marker
       inkscape:stockid="Arrow1Lstart"
       orient="auto"
       refY="0"
       refX="0"
       id="Arrow1Lstart"
       style="overflow:visible"
       inkscape:isstock="true"><path
         id="path6028"
         d="M 0,0 5,-5 -12.5,0 5,5 Z"
         style="fill:#040000;fill-opacity:1;fill-rule:evenodd;stroke:#040000;stroke-width:1.00000003pt;stroke-opacity:1"
         transform="matrix(0.8,0,0,0.8,10,0)"
         inkscape:connector-curvature="0" /></marker><linearGradient
       id="linearGradient6024"
       osb:paint="solid"><stop
         style="stop-color:#040000;stop-opacity:1;"
         offset="0"
         id="stop6022" /></linearGradient><linearGradient
       id="linearGradient5994"
       osb:paint="solid"><stop
         style="stop-color:#000000;stop-opacity:1;"
         offset="0"
         id="stop5992" /></linearGradient></defs><sodipodi:namedview
     pagecolor="#ffffff"
     bordercolor="#666666"
     borderopacity="1"
     objecttolerance="10"
     gridtolerance="10"
     guidetolerance="10"
     inkscape:pageopacity="0"
     inkscape:pageshadow="2"
     inkscape:window-width="1366"
     inkscape:window-height="700"
     id="namedview24"
     showgrid="false"
     inkscape:measure-start="264.155,385.648"
     inkscape:measure-end="263.234,524.628"
     fit-margin-top="0"
     fit-margin-left="0"
     fit-margin-right="0"
     fit-margin-bottom="0"
     inkscape:zoom="0.54324216"
     inkscape:cx="39.472711"
     inkscape:cy="285.86285"
     inkscape:window-x="0"
     inkscape:window-y="34"
     inkscape:window-maximized="1"
     inkscape:current-layer="g6561" /><g
     id="g6561"
     transform="translate(174,32)"><g
       id="g6602"
       transform="matrix(1.1948549,0,0,1.1948549,-23.930396,-37.121973)"><path
         inkscape:label="#ppathpee"
         inkscape:connector-curvature="0"
         id="pathpee"
         d="M 53.060264,67.436406 V 440.08167 l 24.96087,57.6292 1.03791,2.03974 24.983616,-59.59823 V 67.507117 c 0,-5.23259 -4.808326,-8.909546 -11.313706,-10.889445 -3.74767,-1.202081 -7.9196,10.817021 -12.23295,10.74631 -4.31335,-0.07071 -8.69741,-12.301945 -12.72792,-11.241284 -7.77818,1.838477 -14.00071,5.798275 -14.70782,11.313708 z m -15.34422,374.271604 0.0707,-374.130183 v -0.565685 0 c 0.84853,-13.717872 12.23295,-22.273864 26.37508,-25.809398 5.30331,-1.343502 11.10158,-1.909188 16.82915,-1.838477 5.72756,0.07071 11.45513,0.989949 16.54629,2.545584 12.586506,3.959798 21.991026,12.374369 21.991026,25.526555 l -0.14143,374.059474 c 0.0707,1.06066 -0.14142,2.12132 -0.63639,3.18198 v 0 c -56.836436,79.87144 -23.293186,79.44514 -80.256606,0.35372 -0.49497,-1.06066 -0.77782,-2.19203 -0.77782,-3.32341 z"
         sodipodi:nodetypes="cccccscscccccccscccccccc" /><path
         inkscape:label="#ppathsd"
         inkscape:connector-curvature="0"
         id="pathsd"
         d="m 15.414928,83.298716 c 0,-4.242641 -3.004624,-4.255965 -7.247264,-4.255965 C 3.925023,79.042751 0,79.056071 0,83.298716 L 0.07071,235.82165 c 0,4.24264 3.464823,7.70746 7.707463,7.70746 4.242641,0 7.707464,-3.46482 7.707464,-7.70746 -0.141421,0 -0.07071,-152.522934 -0.07071,-152.522934 z"
         sodipodi:nodetypes="csccsccc" /><path
         inkscape:connector-curvature="0"
         id="pathsdsd"
         d="m 40.080794,105.25845 c 4.17193,-0.0707 2.04364,-3.60625 1.97293,-7.778179 -0.0707,-4.17193 1.91616,-7.566043 -2.25577,-7.495332 l -25.667981,0.494975 c -4.17193,0.07071 -3.884443,3.376144 -3.813732,7.548074 0.07071,4.171932 -0.07536,7.796142 4.096575,7.725432 -0.07071,0.0707 25.667978,-0.49497 25.667978,-0.49497 z"
         sodipodi:nodetypes="csccscc" /><path
         sodipodi:type="spiral"
         style="opacity:1;fill:none;fill-opacity:1;fill-rule:evenodd;stroke:#040000;stroke-width:25;stroke-linejoin:round;stroke-miterlimit:4;stroke-dasharray:none;stroke-dashoffset:0;stroke-opacity:1"
         id="path4532"
         sodipodi:cx="223.12946"
         sodipodi:cy="184.36652"
         sodipodi:expansion="0"
         sodipodi:revolution="0.80500311"
         sodipodi:radius="120.66775"
         sodipodi:argument="-16.127844"
         sodipodi:t0="0.25321749"
         d="m 144.48265,92.849381 c 49.85236,-42.841465 127.32247,-36.98202 170.16394,12.870339 42.84147,49.85235 36.98202,127.32247 -12.87033,170.16393 -19.45001,16.71469 -44.11652,26.91449 -69.69114,28.81782"
         transform="rotate(10.995686,188.57747,-93.541961)" /><circle
         style="opacity:1;fill:#000000;fill-opacity:1;stroke:#040000;stroke-width:25;stroke-linejoin:round;stroke-miterlimit:4;stroke-dasharray:none;stroke-dashoffset:0;stroke-opacity:1"
         id="path6536"
         cx="167.36694"
         cy="132.51364"
         r="13.016419" /><circle
         style="opacity:1;fill:#000000;fill-opacity:1;stroke:#040000;stroke-width:25;stroke-linejoin:round;stroke-miterlimit:4;stroke-dasharray:none;stroke-dashoffset:0;stroke-opacity:1"
         id="path6536-3"
         cx="167.71259"
         cy="231.96828"
         r="13.016419"
         inkscape:transform-center-x="35.435394"
         inkscape:transform-center-y="12.885598" /></g></g></svg>